<?xml version="1.0" encoding="UTF-8" standalone="no"?><svg xmlns="http://www.w3.org/2000/svg" width="144px" height="39px" viewBox="0 0 144 39"><path fill="#ed1b34" d="M 137,39 H 7 C 3,39 0,36 0,32 V 7 C 0,3 3,0 7,0 h 130 c 4,0 7,3 7,7 v 25 c 0,4 -3,7 -7,7 z"/><g fill="#fff"><path d="m 25,9 h 5 v 13 c 0,5 -3.5,8 -9,8 -5.5,0 -9,-3 -9,-8 V 9 h 5 v 13 c 0,2.5 1.5,4 4,4 2,0 4,-1.5 4,-4 z"/><path d="M 46,30 39,18 V 30 H 34 V 9 h 5 l 7,12 V 9 h 5 v 21 z"/><path d="M 61,30 H 56 V 9 h 5 z"/><path d="m 67,9 9,12 V 9 Z"/><path d="m 82,9 h 15 v 4 H 87 v 4 h 9 v 4 h -9 v 5 h 10 v 4 H 82 Z"/><path d="m 115,9 v 4 h -6 v 17 h -5 V 13 H 98 V 9 Z"/><path d="m 133,9 v 4 h -6 v 17 h -5 V 13 h -6 V 9 Z"/><path d="m 67,18 v 12 h 9 z"/></g></svg>
